<svg xmlns="http://www.w3.org/2000/svg" width="279.7" height="53" viewBox="0 0 279.7 53"><path fill="#001A57" d="M9.4 49c-1.1 0-2.2 0-3.4.1-1.2.1-2.2.1-3.1.1-.2 0-.5 0-.8-.1-.3 0-.5-.3-.5-.6s.2-.6.5-.9c.3-.3 1.1-.5 2.2-.7.4 0 .8-.1 1.2-.3.4-.1.7-.3 1-.6.3-.3.6-.8.8-1.3.2-.6.3-1.4.3-2.4V8.5c0-.3-.2-.6-.5-.8-.4-.2-.9-.3-1.4-.3s-1-.1-1.6-.1c-.6 0-1.1-.1-1.5-.1-.8-.2-1.4-.3-1.7-.4-.3 0-.5-.3-.5-.6s.1-.5.3-.7c.3-.2.5-.3.8-.4s.6-.1.9-.1H9.8c1.8 0 3.6-.1 5.4-.2 1.8-.2 3.8-.3 6.1-.3 3.8 0 7.3.5 10.7 1.4 3.3 1 6.2 2.4 8.7 4.5 2.5 2 4.4 4.6 5.9 7.7 1.4 3.1 2.2 6.9 2.2 11.2 0 2.7-.6 5.2-1.8 7.6-1.2 2.4-2.8 4.5-4.8 6.3s-4.4 3.2-7.1 4.2c-2.7 1-5.6 1.5-8.7 1.5h-17zm4.3-9c0 1.2.3 2.3.8 3.2.5.9 1.2 1.7 2.1 2.3.9.6 1.8 1 3 1.3 1.1.3 2.2.4 3.4.4 1 0 2.1-.1 3.4-.4 1.3-.3 2.6-.7 4-1.3 1.4-.6 2.8-1.4 4.2-2.4 1.4-1 2.6-2.2 3.7-3.6s2-3.1 2.7-5c.7-1.9 1-4.1 1-6.5s-.3-4.7-1-6.7-1.6-3.8-2.7-5.4-2.5-3-4-4.1c-1.5-1.2-3.1-2.1-4.7-2.9-1.6-.8-3.3-1.3-5-1.7-1.7-.4-3.3-.5-4.8-.5s-2.6.1-3.5.2c-.8.1-1.4.3-1.8.5-.4.2-.6.5-.7.8-.1.3-.1.6-.1.8v31zM65.2 50.3c-1.7 0-3.1-.2-4.2-.7-1.1-.5-2-1.2-2.7-2.1-.6-.9-1.1-2-1.4-3.2-.3-1.2-.4-2.6-.4-4.2V24.7c0-.5-.2-.9-.7-1-.5-.1-.9-.3-1.4-.4-.9-.2-1.4-.4-1.7-.5s-.4-.3-.4-.5c0-.3.2-.5.5-.6.3 0 .8-.1 1.3-.1s1 0 1.5.1c.5 0 1 .1 1.5.1s1.1 0 1.6-.1c.5 0 1.1-.1 1.6-.1s.8.1.9.3c.1.2.2.6.2 1.1 0 3.2 0 6.4-.1 9.6 0 3.2-.1 6.4-.1 9.6 0 1.5.5 2.6 1.5 3.4 1 .8 2.4 1.2 4.2 1.2 2 0 3.6-.2 4.7-.6 1.1-.4 2-.9 2.6-1.5.6-.6.9-1.3 1.1-2.1.2-.8.3-1.5.3-2.2 0-2.6 0-5.2.1-7.7 0-2.5.1-5.1.1-7.7 0-.2 0-.4-.1-.5-.1-.1-.2-.3-.5-.4-.3-.1-.6-.2-1.1-.3-.5-.1-1.2-.3-2-.5-.3-.1-.7-.2-1.3-.4-.6-.2-.8-.4-.8-.7 0-.2.2-.4.5-.5.3-.1.7-.1 1.1-.1.6 0 1.2 0 1.8.1.6 0 1.2.1 1.8.1.7 0 1.4 0 2.1-.1.7 0 1.4-.1 2.1-.1.2 0 .6.1.9.3.4.2.6.6.6 1.3 0 3.6 0 7.3-.1 10.9-.1 3.6-.1 7.3-.1 10.9 0 .8.2 1.2.7 1.4.5.2.9.3 1.2.3 1.4 0 2.4 0 2.9.1.6 0 .8.3.8.6s-.1.5-.3.6c-.2.1-.6.2-1.1.3-2.5.4-4.5.7-6 1-1.4.3-2.3.4-2.7.4-.3 0-.5-.1-.5-.3 0-.2-.1-.5-.1-.8v-1.7c0-.6-.2-.9-.5-.9s-.7.2-1.2.6c-.5.4-1.2.9-2.1 1.5-.8.6-1.8 1-3 1.5-.9.5-2.2.7-3.6.7zM93.2 8c0-1-.2-1.6-.5-2.1-.4-.4-.8-.7-1.2-.9-.5-.2-.9-.3-1.2-.4-.4-.1-.5-.3-.5-.6 0-.2.1-.4.4-.5.2-.1.6-.3 1.2-.5l4.9-1.9c-.1 0 .1-.1.3-.1h.6c.2 0 .4.1.5.3.2.2.3.5.3 1v29.6c0 .8.2 1.2.6 1.2.1 0 .5-.2 1.1-.5.6-.3 1.4-.7 2.3-1.2.9-.5 1.8-1.1 2.8-1.7 1-.6 1.9-1.2 2.7-1.8.8-.6 1.5-1.1 2.1-1.5.6-.5.8-.8.8-1 0-.5-.1-.9-.4-1.1-.3-.3-.6-.5-.9-.6-.3-.2-.6-.3-.9-.5-.3-.2-.4-.4-.4-.7 0-.2.1-.4.3-.5s.4-.2.7-.2c.8 0 1.6 0 2.6.1 1 0 2 .1 2.9.1.9 0 1.9 0 2.8-.1 1 0 1.8-.1 2.6-.1.3 0 .6 0 .9.1.3.1.4.3.4.7 0 .2-.1.4-.4.5-.3.2-.6.3-1 .5-.4.1-.8.3-1.2.4-.4.1-.7.2-1 .3-.5.2-1.5.8-3.1 1.6-1.5.8-3.1 1.7-4.7 2.7-1.6 1-3 1.9-4.3 2.7-1.2.8-1.9 1.4-1.9 1.5 0 .2.1.4.2.6s.3.3.4.4l12.5 11.3c.7.7 1.4 1.2 2.1 1.5.7.3 1.3.6 1.8.8.5.2.9.4 1.3.5.3.1.5.3.5.6 0 .5-.6.7-1.9.7-.8 0-1.6 0-2.5-.1-.9-.1-1.9-.1-3-.1-1 0-1.9 0-2.7.1-.9.1-1.7.1-2.6.1-.8 0-1.3 0-1.7-.1-.3-.1-.5-.3-.5-.6s.2-.6.6-.7c.4-.1.9-.2 1.5-.3.4 0 .7-.2 1-.4.3-.2.4-.4.4-.6 0-.2-.3-.6-.8-1.2L99.2 35.1c-.3-.3-.5-.4-.6-.4-.3 0-.5.1-.5.4v10.2c0 .8.2 1.4.5 1.7.4.3.7.5 1 .6.6.2 1.1.3 1.5.4.4.1.6.3.6.6s-.2.5-.5.6c-.4.1-.7.1-1.1.1-.9 0-1.7 0-2.4-.1-.8-.2-1.6-.2-2.4-.2-.9 0-1.8 0-2.8.1-1 .1-1.8.1-2.4.1-.2 0-.6 0-1-.1-.5-.1-.7-.3-.7-.6s.1-.6.4-.7c.2-.1.6-.2.9-.3.5-.1.9-.3 1.4-.4.4-.1.8-.2 1.2-.4.3-.2.6-.5.8-.9.2-.4.3-1 .3-1.7V8zM130 32.3c-.1.2-.1.6-.1 1v1.5c0 1.5.1 3 .4 4.5.3 1.4.8 2.7 1.5 3.8.7 1.1 1.8 2 3.2 2.7 1.4.7 3.2 1 5.4 1 1.4 0 2.5-.1 3.2-.4.8-.3 1.4-.6 1.8-1 .4-.4.8-.7 1-1 .2-.3.5-.5.8-.5.4 0 .6.2.6.6 0 .1-.2.5-.6 1.1-.4.6-1 1.2-1.9 1.9-.9.7-2 1.3-3.3 1.9-1.3.6-2.9.8-4.8.8-4 0-7.1-1.3-9.2-3.9-2.2-2.6-3.2-6.2-3.2-10.7 0-1.7.3-3.4.8-5.2.5-1.8 1.3-3.4 2.4-4.9 1.1-1.5 2.4-2.7 4.1-3.6 1.6-1 3.6-1.4 5.8-1.4 2.1 0 3.8.4 5.2 1.2 1.4.8 2.6 1.7 3.4 2.8s1.5 2.2 1.9 3.3c.4 1.2.6 2.1.6 2.9 0 .7-.1 1.1-.3 1.3-.2.2-.6.3-1.2.3H130zm6.9-2.2c1.6 0 2.9-.1 3.8-.2 1-.1 1.7-.3 2.2-.6.5-.3.9-.6 1-1.1.2-.4.3-1 .3-1.7 0-1.2-.5-2.3-1.5-3.1-1-.8-2.3-1.3-3.8-1.3-1.3 0-2.5.3-3.5.8-1 .6-1.9 1.2-2.6 2-.7.8-1.2 1.6-1.6 2.4-.4.8-.6 1.5-.6 2.1 0 .1 0 .3.1.3.1.1.3.1.7.2.4 0 1 .1 1.9.1.9.1 2 .1 3.6.1z"/><path fill="#ECB445" d="M165.2 25.1V49H161V25.1h-8.2V21h20.5v4.1h-8.1zM200 35c0 2.1-.3 4.1-.8 5.8-.6 1.8-1.4 3.3-2.4 4.6-1 1.3-2.3 2.3-3.7 3-1.5.7-3.1 1.1-4.9 1.1-1.8 0-3.4-.4-4.9-1.1-1.5-.7-2.7-1.7-3.7-3s-1.8-2.8-2.4-4.6c-.6-1.8-.8-3.7-.8-5.8 0-2.1.3-4 .8-5.8.6-1.8 1.4-3.3 2.4-4.6 1-1.3 2.3-2.3 3.7-3 1.5-.7 3.1-1.1 4.9-1.1 1.8 0 3.5.4 4.9 1.1 1.5.7 2.7 1.7 3.7 3s1.8 2.8 2.4 4.6c.5 1.8.8 3.7.8 5.8zm-4.3 0c0-3.1-.6-5.6-1.9-7.5-1.3-1.8-3.2-2.8-5.7-2.8s-4.3.9-5.6 2.8c-1.3 1.8-1.9 4.3-1.9 7.5s.6 5.6 1.9 7.5c1.3 1.8 3.2 2.8 5.6 2.8 2.5 0 4.4-.9 5.7-2.8 1.3-1.9 1.9-4.4 1.9-7.5zM227.2 35c0 2.5-.4 4.6-1.1 6.4-.7 1.8-1.7 3.2-3 4.3-1.3 1.1-2.7 2-4.3 2.5-1.6.5-3.4.8-5.2.8H206V21h7.6c1.9 0 3.6.3 5.3.8 1.7.5 3.1 1.4 4.3 2.5 1.2 1.1 2.2 2.6 2.9 4.3.8 1.8 1.1 3.9 1.1 6.4zm-4.2 0c0-1.5-.2-2.8-.5-4-.3-1.2-.9-2.3-1.7-3.1-.8-.9-1.7-1.6-2.9-2-1.2-.5-2.6-.7-4.3-.7h-3.4V45h3.4c1.7 0 3.1-.2 4.3-.7 1.2-.5 2.2-1.2 2.9-2 .8-.9 1.3-1.9 1.7-3.1.3-1.4.5-2.7.5-4.2zM250.3 49l-2.4-6.6h-11.2l-2.3 6.6H230l10.1-28h4.4l10.2 28h-4.4zm-5.9-16.8c-.2-.5-.3-1.1-.6-1.7l-.6-1.8c-.2-.6-.4-1.2-.6-1.7-.2-.5-.3-.9-.4-1.2-.1.3-.2.7-.4 1.2s-.3 1.1-.5 1.7c-.2.6-.4 1.2-.6 1.9s-.4 1.2-.6 1.7l-2.2 6.4h8.6l-2.1-6.5zM268.2 37.9V49H264V37.9L254 21h4.9l4.4 7.7c.2.4.5.9.8 1.4s.6 1.1.8 1.6c.3.5.5 1 .7 1.5.2.5.4.8.5 1.1.1-.3.3-.6.5-1.1s.5-.9.7-1.4c.3-.5.5-1 .8-1.6.3-.5.6-1 .8-1.5l4.4-7.8h4.8l-9.9 17z"/></svg>